<?xml version="1.0" standalone="no"?>
<!DOCTYPE svg PUBLIC "-//W3C//DTD SVG 20010904//EN"
 "http://www.w3.org/TR/2001/REC-SVG-20010904/DTD/svg10.dtd">
<svg version="1.0" xmlns="http://www.w3.org/2000/svg"
 width="750.000000pt" height="750.000000pt" viewBox="0 0 750.000000 750.000000"
 preserveAspectRatio="xMidYMid meet">
<metadata>
Created by potrace 1.14, written by Peter Selinger 2001-2017
</metadata>
<g transform="translate(0.000000,750.000000) scale(0.100000,-0.100000)"
fill="#000000" stroke="none">
<path d="M545 7490 c-3 -5 -14 -7 -25 -5 -11 2 -20 -2 -20 -8 0 -7 -4 -6 -10
3 -5 8 -10 10 -10 4 0 -7 -12 -15 -27 -20 -58 -16 -91 -31 -140 -64 -24 -17
-46 -30 -48 -30 -11 0 -115 -108 -115 -120 0 -7 -3 -10 -7 -7 -6 7 -73 -96
-73 -114 0 -5 -4 -9 -10 -9 -5 0 -7 -7 -4 -15 4 -8 1 -15 -7 -15 -7 0 -9 -3
-6 -7 4 -3 2 -12 -3 -18 -6 -7 -11 -24 -12 -39 -1 -14 -6 -26 -10 -26 -4 0 -8
-10 -9 -22 -5 -72 -3 -6419 2 -6446 3 -17 9 -35 12 -39 4 -3 7 -17 7 -29 0
-13 5 -26 10 -29 6 -4 8 -11 5 -16 -4 -5 -1 -9 5 -9 7 0 10 -7 6 -15 -3 -8 -1
-15 4 -15 6 0 10 -7 10 -15 0 -8 4 -15 9 -15 5 0 11 -10 15 -22 3 -13 5 -23 4
-23 0 0 10 -13 23 -29 46 -56 150 -155 169 -161 11 -4 20 -11 20 -16 0 -5 9
-9 20 -9 11 0 20 -4 20 -8 0 -7 48 -29 61 -28 3 1 13 -5 21 -11 8 -7 27 -14
42 -15 14 -1 26 -5 26 -8 0 -3 12 -8 28 -9 15 -2 1455 -5 3201 -7 2225 -2
3180 0 3194 7 14 8 18 8 13 0 -4 -6 -3 -11 3 -11 5 0 12 4 16 10 3 5 12 7 19
4 8 -3 17 0 21 6 5 8 11 7 23 -2 12 -10 14 -10 8 0 -7 11 6 16 41 15 7 -1 10
4 6 10 -4 6 2 8 15 5 12 -4 20 -3 17 2 -3 4 6 11 20 14 14 4 25 11 25 16 0 6
9 10 20 10 11 0 20 5 20 11 0 5 13 15 29 20 16 6 32 17 35 25 3 8 13 14 22 14
10 0 15 3 12 6 -4 3 13 24 36 47 24 23 45 50 49 59 3 10 11 18 17 18 6 0 8 4
5 10 -3 5 -1 10 4 10 6 0 11 9 11 20 0 11 4 20 9 20 5 0 12 14 16 30 4 17 11
28 16 24 5 -3 9 6 9 19 0 13 3 27 7 31 4 3 8 15 10 26 7 48 9 56 16 66 3 6 6
1447 6 3202 0 2506 -2 3192 -12 3192 -8 0 -7 4 3 10 9 6 10 10 3 10 -7 0 -10
10 -7 26 3 16 1 23 -6 19 -6 -3 -10 3 -10 15 0 25 -41 124 -72 174 -27 43
-150 176 -164 176 -5 0 -27 14 -48 30 -21 16 -43 27 -47 24 -5 -3 -9 -2 -9 3
0 11 -51 34 -61 27 -5 -3 -9 0 -9 5 0 6 -9 11 -19 11 -11 0 -22 6 -24 13 -4 9
-6 9 -6 -1 -1 -10 -6 -10 -22 -1 -12 6 -32 9 -45 6 -14 -2 -27 -1 -30 4 -7 11
-6362 10 -6369 -1z"/>
</g>
</svg>
